<svg width="86" height="44" viewBox="0 0 86 44" fill="none" xmlns="http://www.w3.org/2000/svg">
    <path
        d="M10.2344 11.1806C11.9356 8.42486 15.0164 7.62649 15.0164 7.62649C15.0164 7.62649 9.13667 6.10005 9.13667 0C9.13667 6.10005 3.25352 7.62649 3.25352 7.62649C3.25352 7.62649 6.33544 8.42486 8.03777 11.1806H0V21.7454L1.82733 18.4737H5.48086V36.7069L12.7891 44V21.6751C10.9254 20.8178 8.248 18.6381 7.28888 16.9756C8.92643 17.4689 11.1231 18.1176 12.8334 18.4748H18.2711V11.1806H10.2344Z"
        fill="white" />
    <g clip-path="url(#clip0_1601_2929)">
        <path fill-rule="evenodd" clip-rule="evenodd"
            d="M50.8811 21.3907C51.8273 20.11 53.2989 19.4081 55.0648 19.4081H55.067C58.4703 19.4081 60.8467 21.9543 60.8467 25.4941C60.8467 29.0338 58.3984 31.6017 55.0212 31.6017C53.216 31.6017 51.7793 30.9344 50.8462 29.6666L50.7851 31.3188H48.206V14.9785H50.8811V21.3907ZM54.8774 29.3643C56.9485 29.3643 58.394 27.805 58.394 25.574C58.394 23.2912 57.1077 21.76 55.0103 21.76C52.913 21.76 51.4479 23.2718 51.4479 25.574C51.4479 27.8762 52.8062 29.3643 54.8774 29.3643ZM32.2666 28.9863C31.6038 29.4873 31.0762 29.6817 30.3807 29.6817C29.356 29.6817 28.7674 29.064 28.7674 27.9842V21.8895H33.0667V19.5441H28.7674V16.4989H26.0923V19.5419H24.2326L23.6265 21.8873H26.0923V28.0058C26.0923 30.673 27.5247 32.1416 30.1278 32.1416C31.316 32.1416 32.3756 31.7788 33.3632 31.0315L33.4352 30.9775L32.3712 28.9064L32.2666 28.9841V28.9863ZM40.0782 19.3152C36.6575 19.3152 34.1764 21.8852 34.1764 25.4249C34.1764 29.1504 36.5376 31.5563 40.1894 31.5563C42.2758 31.5563 43.8347 30.9257 45.0905 29.5716L45.1559 29.5024L43.7366 27.8071L43.6515 27.8892C42.6726 28.8373 41.661 29.2606 40.366 29.2606C38.334 29.2606 37.0848 28.157 36.8384 26.1463H45.6268V26.0383C45.6268 25.9303 45.6311 25.8288 45.6377 25.7273C45.6442 25.6215 45.6486 25.5156 45.6486 25.4033C45.6486 21.7059 43.4619 19.3152 40.0782 19.3152ZM36.8929 24.4099C37.233 22.7275 38.4627 21.6476 40.0564 21.6476C41.6501 21.6476 42.7271 22.6519 42.9626 24.4099H36.8929ZM68.1068 19.3152C64.6861 19.3152 62.205 21.8852 62.205 25.4249C62.205 29.1504 64.5662 31.5563 68.218 31.5563C70.3044 31.5563 71.8633 30.9257 73.1191 29.5716L73.1845 29.5024L71.7652 27.8071L71.6801 27.8892C70.7012 28.8373 69.6896 29.2606 68.3946 29.2606C66.3626 29.2606 65.1134 28.157 64.867 26.1463H73.6554V26.0383C73.6554 25.9303 73.6597 25.8288 73.6663 25.7273C73.6728 25.6215 73.6772 25.5156 73.6772 25.4033C73.6772 21.7059 71.4905 19.3152 68.1068 19.3152ZM68.085 21.6455C69.7027 21.6455 70.7557 22.6497 70.9912 24.4077H64.9215C65.2616 22.7253 66.4913 21.6455 68.085 21.6455ZM85.326 19.5419L81.1771 25.142L85.7947 31.3188H82.616L79.6335 27.103L76.7164 31.3188H73.6947L78.1553 25.2975L73.8952 19.5419H77.074L79.6989 23.3775L82.3021 19.5419H85.326Z"
            fill="white" />
    </g>
    <defs>
        <clipPath id="clip0_1601_2929">
            <rect width="62.1682" height="17.1631" fill="white" transform="translate(23.6265 14.9785)" />
        </clipPath>
    </defs>
</svg>